<?xml version="1.0" encoding="utf-8"?>
<!-- Generator: Adobe Illustrator 16.0.0, SVG Export Plug-In . SVG Version: 6.00 Build 0)  -->
<!DOCTYPE svg PUBLIC "-//W3C//DTD SVG 1.1//EN" "http://www.w3.org/Graphics/SVG/1.1/DTD/svg11.dtd">
<svg version="1.1" id="Camada_1" xmlns="http://www.w3.org/2000/svg" xmlns:xlink="http://www.w3.org/1999/xlink" x="0px" y="0px"
	 width="591px" height="120px" viewBox="0 0 591 120" enable-background="new 0 0 591 120" xml:space="preserve">
<g>
	<defs>
		<rect id="SVGID_1_" x="-142" y="-365.394" width="850.394" height="850.394"/>
	</defs>
	<clipPath id="SVGID_2_">
		<use xlink:href="#SVGID_1_"  overflow="visible"/>
	</clipPath>
	<path clip-path="url(#SVGID_2_)" fill="#F9F9F9" d="M148.225,84.316c-9.028,0-16.345-7.314-16.345-16.344
		c0-2.255,0.457-4.406,1.284-6.361c0.828-1.957,15.061-24.842,15.061-24.842s14.229,22.885,15.056,24.842
		c0.827,1.955,1.283,4.106,1.283,6.361C164.564,77.002,157.247,84.316,148.225,84.316 M183.75,59.65
		c-0.806-2.201-1.798-4.065-2.984-5.589c-1.187-1.523-2.414-2.75-3.683-3.684c-1.27-0.929-2.373-1.692-3.303-2.284
		c0.676-0.509,1.589-1.226,2.731-2.16c1.144-0.931,2.242-2.138,3.303-3.619c1.058-1.481,1.968-3.238,2.733-5.272
		c0.759-2.032,1.141-4.317,1.141-6.857c0-3.894-0.616-7.451-1.842-10.669c-1.23-3.217-3.069-5.969-5.524-8.255
		c-2.459-2.287-5.464-4.063-9.018-5.334c-3.557-1.271-7.705-1.905-12.445-1.905h-37.466v90.426h39.369
		c4.066,0,7.811-0.57,11.242-1.715c3.426-1.142,6.39-2.856,8.888-5.142c2.497-2.287,4.465-5.081,5.907-8.382
		c1.439-3.304,2.16-7.113,2.16-11.433C184.959,64.561,184.556,61.852,183.75,59.65"/>
	<path clip-path="url(#SVGID_2_)" fill="#F9F9F9" d="M137.064,67.081c0-1.23,0.994-2.229,2.224-2.229
		c1.235,0,2.226,0.998,2.226,2.229c0.009,4.104,3.332,7.423,7.433,7.43c1.234,0,2.228,0.996,2.228,2.227
		c0,1.232-0.994,2.23-2.228,2.23C142.382,78.964,137.064,73.645,137.064,67.081"/>
	<path clip-path="url(#SVGID_2_)" fill="#F9F9F9" d="M217.938,94.447c-3.781,0-6.996-0.608-9.643-1.827s-4.814-2.793-6.493-4.728
		c-1.681-1.933-2.921-4.075-3.719-6.429c-0.8-2.353-1.197-4.706-1.197-7.061V4.691h20.675v68.2c0,2.774,1.385,4.16,4.158,4.16h7.186
		v17.396H217.938z"/>
	<path clip-path="url(#SVGID_2_)" fill="#F9F9F9" d="M275.168,94.447V88.9c-2.102,2.103-4.582,3.679-7.436,4.729
		c-2.86,1.048-5.633,1.575-8.32,1.575c-3.197,0-6.075-0.504-8.636-1.513c-2.565-1.011-4.772-2.437-6.619-4.287
		c-2.943-2.939-4.811-6.008-5.609-9.201c-0.8-3.193-1.199-6.598-1.199-10.211V26.626h20.675v40.592c0,1.935,0.294,3.511,0.882,4.728
		c0.587,1.22,1.325,2.165,2.206,2.837c0.882,0.674,1.806,1.135,2.774,1.387c0.965,0.252,1.784,0.379,2.458,0.379
		c0.671,0,1.49-0.127,2.458-0.379c0.965-0.252,1.892-0.713,2.774-1.387c0.883-0.672,1.616-1.617,2.206-2.837
		c0.586-1.217,0.882-2.793,0.882-4.728V26.626h20.675v67.821H275.168z"/>
	<path clip-path="url(#SVGID_2_)" fill="#F9F9F9" d="M345.635,50.894c-0.167-0.883-0.464-1.784-0.88-2.71
		c-0.676-1.429-1.723-2.667-3.154-3.72c-1.431-1.049-3.365-1.575-5.8-1.575c-2.437,0-4.369,0.526-5.795,1.575
		c-1.432,1.053-2.479,2.291-3.154,3.72c-0.421,0.926-0.713,1.827-0.88,2.71c-0.173,0.882-0.254,1.745-0.254,2.585h20.172
		C345.89,52.639,345.803,51.775,345.635,50.894 M325.718,67.219c0,2.771,1.028,5.229,3.086,7.375
		c2.063,2.143,5.02,3.214,8.894,3.214c3.606,0,6.382-0.483,8.316-1.45c1.934-0.965,3.823-2.373,5.676-4.223l12.352,12.354
		c-1.767,1.765-3.526,3.298-5.294,4.601c-1.766,1.304-3.681,2.418-5.737,3.341c-2.064,0.925-4.332,1.619-6.805,2.08
		c-2.484,0.461-5.316,0.691-8.508,0.691c-3.787,0-7.586-0.438-11.41-1.322c-3.829-0.883-7.269-2.563-10.337-5.042
		c-3.072-2.478-5.589-5.987-7.565-10.526c-1.977-4.537-2.963-10.463-2.963-17.774c0-5.546,0.757-10.462,2.269-14.75
		c1.512-4.285,3.613-7.92,6.302-10.904c2.69-2.982,5.881-5.231,9.581-6.744s7.771-2.269,12.228-2.269
		c4.957,0,9.332,0.84,13.112,2.521s6.953,3.971,9.519,6.87c2.56,2.9,4.518,6.304,5.863,10.212c1.338,3.906,2.014,8.089,2.014,12.542
		v9.203H325.718z"/>
	<path clip-path="url(#SVGID_2_)" fill="#F9F9F9" d="M416.542,92.935c-3.649,1.513-7.877,2.269-12.667,2.269
		c-2.944,0-6.178-0.421-9.705-1.259c-3.532-0.84-6.854-2.5-9.958-4.98c-3.11-2.478-5.694-5.988-7.753-10.525
		c-2.063-4.539-3.092-10.505-3.092-17.902c0-7.394,1.028-13.362,3.092-17.9c2.059-4.538,4.643-8.046,7.753-10.526
		c3.104-2.478,6.426-4.138,9.958-4.979c3.527-0.84,6.761-1.261,9.705-1.261c4.79,0,9.018,0.756,12.667,2.269
		c3.662,1.513,6.872,3.656,9.644,6.429l-13.987,13.993c-1.352-1.343-2.653-2.352-3.911-3.026c-1.258-0.671-2.733-1.008-4.412-1.008
		c-1.431,0-2.627,0.21-3.594,0.631c-0.967,0.421-1.909,1.093-2.832,2.016c-2.275,2.354-3.409,6.808-3.409,13.362
		c0,6.557,1.134,11.011,3.409,13.363c0.923,0.926,1.865,1.598,2.832,2.016c0.967,0.423,2.163,0.632,3.594,0.632
		c1.679,0,3.154-0.336,4.412-1.009c1.258-0.672,2.56-1.68,3.911-3.024l13.987,13.992C423.414,89.279,420.204,91.422,416.542,92.935"
		/>
	<path clip-path="url(#SVGID_2_)" fill="#F9F9F9" d="M470.94,94.447V88.9c-2.103,2.103-4.587,3.679-7.437,4.729
		c-2.864,1.048-5.634,1.575-8.323,1.575c-3.197,0-6.072-0.504-8.633-1.513c-2.564-1.011-4.771-2.437-6.618-4.287
		c-2.943-2.939-4.814-6.008-5.608-9.201c-0.806-3.193-1.202-6.598-1.202-10.211V26.626h20.674v40.592
		c0,1.935,0.297,3.511,0.886,4.728c0.582,1.22,1.32,2.165,2.206,2.837c0.88,0.674,1.804,1.135,2.771,1.387s1.785,0.379,2.46,0.379
		c0.67,0,1.487-0.127,2.461-0.379c0.96-0.252,1.89-0.713,2.77-1.387c0.887-0.672,1.617-1.617,2.206-2.837
		c0.589-1.217,0.88-2.793,0.88-4.728V26.626h20.681v67.821H470.94z"/>
	<path clip-path="url(#SVGID_2_)" fill="#F9F9F9" d="M542.04,60.536c0-2.436-0.088-4.642-0.255-6.618
		c-0.168-1.973-0.546-3.656-1.135-5.043c-0.588-1.386-1.45-2.458-2.584-3.214c-1.134-0.756-2.671-1.135-4.604-1.135
		c-1.936,0-3.464,0.379-4.599,1.135c-1.134,0.756-1.996,1.828-2.585,3.214c-0.588,1.387-0.966,3.07-1.134,5.043
		c-0.173,1.976-0.254,4.182-0.254,6.618c0,2.439,0.081,4.646,0.254,6.618c0.168,1.976,0.546,3.656,1.134,5.043
		c0.589,1.387,1.451,2.458,2.585,3.215c1.135,0.757,2.663,1.136,4.599,1.136c1.933,0,3.47-0.379,4.604-1.136
		s1.996-1.828,2.584-3.215c0.589-1.387,0.967-3.067,1.135-5.043C541.952,65.182,542.04,62.976,542.04,60.536 M562.713,60.536
		c0,2.522-0.025,5.106-0.063,7.753c-0.043,2.648-0.254,5.231-0.632,7.754c-0.378,2.521-0.993,4.896-1.828,7.123
		c-0.843,2.227-2.101,4.181-3.78,5.861c-1.939,1.935-4.332,3.447-7.188,4.537c-2.857,1.093-5.925,1.639-9.203,1.639
		c-3.358,0-6.241-0.461-8.632-1.387c-2.398-0.923-4.562-2.352-6.495-4.284v26.851h-20.673V26.625h20.047v5.547
		c2.094-2.1,4.344-3.675,6.743-4.727c2.392-1.05,5.354-1.576,8.886-1.576c3.272,0,6.365,0.548,9.265,1.639
		c2.9,1.094,5.312,2.606,7.251,4.539c1.68,1.681,2.938,3.636,3.78,5.862c0.835,2.227,1.45,4.6,1.828,7.122
		c0.378,2.521,0.589,5.106,0.632,7.752C562.688,55.432,562.713,58.016,562.713,60.536"/>
	<rect x="4.309" y="4.022" clip-path="url(#SVGID_2_)" fill="#F9F9F9" width="90.427" height="25.835"/>
	<rect x="4.309" y="36.317" clip-path="url(#SVGID_2_)" fill="#F9F9F9" width="90.427" height="25.835"/>
	<rect x="4.309" y="68.61" clip-path="url(#SVGID_2_)" fill="#F9F9F9" width="90.427" height="25.838"/>
	<path clip-path="url(#SVGID_2_)" fill="#F9F9F9" d="M587.724,31.381c0,6.646-5.217,11.862-12.005,11.862
		c-6.717,0-12.076-5.216-12.076-11.862c0-6.502,5.359-11.718,12.076-11.718C582.507,19.663,587.724,24.879,587.724,31.381
		 M566.644,31.381c0,5.217,3.858,9.361,9.146,9.361c5.145,0,8.933-4.144,8.933-9.289c0-5.217-3.788-9.432-9.004-9.432
		C570.502,22.021,566.644,26.236,566.644,31.381 M573.86,37.527h-2.715V25.808c1.071-0.215,2.572-0.358,4.502-0.358
		c2.215,0,3.215,0.358,4.072,0.858c0.644,0.5,1.144,1.429,1.144,2.573c0,1.286-1,2.286-2.43,2.715v0.143
		c1.144,0.429,1.787,1.286,2.145,2.858c0.356,1.786,0.571,2.501,0.857,2.93h-2.93c-0.357-0.429-0.572-1.501-0.93-2.858
		c-0.214-1.287-0.929-1.858-2.43-1.858h-1.286V37.527z M573.933,30.881h1.286c1.5,0,2.715-0.5,2.715-1.715
		c0-1.072-0.786-1.786-2.501-1.786c-0.715,0-1.215,0.071-1.5,0.143V30.881z"/>
</g>
</svg>
